<mxfile host="app.diagrams.net" agent="Mozilla/5.0 (Windows NT 10.0; Win64; x64) AppleWebKit/537.36 (KHTML, like Gecko) Chrome/135.0.0.0 Safari/537.36" version="26.2.9">
  <diagram name="Página-1" id="PEuErjQ20nJXlZdxnRsL">
    <mxGraphModel dx="2017" dy="648" grid="1" gridSize="10" guides="1" tooltips="1" connect="1" arrows="1" fold="1" page="1" pageScale="1" pageWidth="827" pageHeight="1169" math="0" shadow="0">
      <root>
        <mxCell id="0" />
        <mxCell id="1" parent="0" />
        <mxCell id="JGXlJp5vlm7jk5opNCR_-1" value="HOME" style="rounded=0;whiteSpace=wrap;html=1;" vertex="1" parent="1">
          <mxGeometry x="354" y="60" width="120" height="60" as="geometry" />
        </mxCell>
        <mxCell id="JGXlJp5vlm7jk5opNCR_-16" style="edgeStyle=orthogonalEdgeStyle;rounded=0;orthogonalLoop=1;jettySize=auto;html=1;entryX=0.5;entryY=1;entryDx=0;entryDy=0;" edge="1" parent="1" source="JGXlJp5vlm7jk5opNCR_-2" target="JGXlJp5vlm7jk5opNCR_-1">
          <mxGeometry relative="1" as="geometry" />
        </mxCell>
        <mxCell id="JGXlJp5vlm7jk5opNCR_-2" value="Calendario" style="rounded=0;whiteSpace=wrap;html=1;" vertex="1" parent="1">
          <mxGeometry x="354" y="160" width="120" height="60" as="geometry" />
        </mxCell>
        <mxCell id="JGXlJp5vlm7jk5opNCR_-17" style="edgeStyle=orthogonalEdgeStyle;rounded=0;orthogonalLoop=1;jettySize=auto;html=1;entryX=0.5;entryY=1;entryDx=0;entryDy=0;" edge="1" parent="1" source="JGXlJp5vlm7jk5opNCR_-3" target="JGXlJp5vlm7jk5opNCR_-1">
          <mxGeometry relative="1" as="geometry">
            <Array as="points">
              <mxPoint x="570" y="130" />
              <mxPoint x="414" y="130" />
            </Array>
          </mxGeometry>
        </mxCell>
        <mxCell id="JGXlJp5vlm7jk5opNCR_-3" value="Equipos" style="rounded=0;whiteSpace=wrap;html=1;" vertex="1" parent="1">
          <mxGeometry x="510" y="160" width="120" height="60" as="geometry" />
        </mxCell>
        <mxCell id="JGXlJp5vlm7jk5opNCR_-15" style="edgeStyle=orthogonalEdgeStyle;rounded=0;orthogonalLoop=1;jettySize=auto;html=1;entryX=0.5;entryY=1;entryDx=0;entryDy=0;" edge="1" parent="1" source="JGXlJp5vlm7jk5opNCR_-4" target="JGXlJp5vlm7jk5opNCR_-1">
          <mxGeometry relative="1" as="geometry">
            <Array as="points">
              <mxPoint x="250" y="130" />
              <mxPoint x="414" y="130" />
            </Array>
          </mxGeometry>
        </mxCell>
        <mxCell id="JGXlJp5vlm7jk5opNCR_-4" value="Blog" style="rounded=0;whiteSpace=wrap;html=1;" vertex="1" parent="1">
          <mxGeometry x="190" y="160" width="120" height="60" as="geometry" />
        </mxCell>
        <mxCell id="JGXlJp5vlm7jk5opNCR_-14" style="edgeStyle=orthogonalEdgeStyle;rounded=0;orthogonalLoop=1;jettySize=auto;html=1;entryX=0;entryY=0.5;entryDx=0;entryDy=0;" edge="1" parent="1" source="JGXlJp5vlm7jk5opNCR_-5" target="JGXlJp5vlm7jk5opNCR_-1">
          <mxGeometry relative="1" as="geometry">
            <Array as="points">
              <mxPoint x="90" y="90" />
            </Array>
          </mxGeometry>
        </mxCell>
        <mxCell id="JGXlJp5vlm7jk5opNCR_-5" value="Servicios" style="rounded=0;whiteSpace=wrap;html=1;" vertex="1" parent="1">
          <mxGeometry x="25" y="160" width="120" height="60" as="geometry" />
        </mxCell>
        <mxCell id="JGXlJp5vlm7jk5opNCR_-18" style="edgeStyle=orthogonalEdgeStyle;rounded=0;orthogonalLoop=1;jettySize=auto;html=1;entryX=1;entryY=0.5;entryDx=0;entryDy=0;" edge="1" parent="1" source="JGXlJp5vlm7jk5opNCR_-6" target="JGXlJp5vlm7jk5opNCR_-1">
          <mxGeometry relative="1" as="geometry">
            <Array as="points">
              <mxPoint x="760" y="90" />
            </Array>
          </mxGeometry>
        </mxCell>
        <mxCell id="JGXlJp5vlm7jk5opNCR_-6" value="Contacto" style="rounded=0;whiteSpace=wrap;html=1;" vertex="1" parent="1">
          <mxGeometry x="690" y="160" width="120" height="60" as="geometry" />
        </mxCell>
        <mxCell id="JGXlJp5vlm7jk5opNCR_-13" style="edgeStyle=orthogonalEdgeStyle;rounded=0;orthogonalLoop=1;jettySize=auto;html=1;entryX=0.5;entryY=1;entryDx=0;entryDy=0;" edge="1" parent="1" source="JGXlJp5vlm7jk5opNCR_-7" target="JGXlJp5vlm7jk5opNCR_-5">
          <mxGeometry relative="1" as="geometry" />
        </mxCell>
        <mxCell id="JGXlJp5vlm7jk5opNCR_-7" value="Renting" style="rounded=0;whiteSpace=wrap;html=1;" vertex="1" parent="1">
          <mxGeometry x="-120" y="250" width="120" height="60" as="geometry" />
        </mxCell>
        <mxCell id="JGXlJp5vlm7jk5opNCR_-10" style="edgeStyle=orthogonalEdgeStyle;rounded=0;orthogonalLoop=1;jettySize=auto;html=1;entryX=0.5;entryY=1;entryDx=0;entryDy=0;" edge="1" parent="1" source="JGXlJp5vlm7jk5opNCR_-8" target="JGXlJp5vlm7jk5opNCR_-5">
          <mxGeometry relative="1" as="geometry" />
        </mxCell>
        <mxCell id="JGXlJp5vlm7jk5opNCR_-8" value="Hoteles" style="rounded=0;whiteSpace=wrap;html=1;" vertex="1" parent="1">
          <mxGeometry x="25" y="290" width="120" height="60" as="geometry" />
        </mxCell>
        <mxCell id="JGXlJp5vlm7jk5opNCR_-12" style="edgeStyle=orthogonalEdgeStyle;rounded=0;orthogonalLoop=1;jettySize=auto;html=1;entryX=0.5;entryY=1;entryDx=0;entryDy=0;" edge="1" parent="1" source="JGXlJp5vlm7jk5opNCR_-9" target="JGXlJp5vlm7jk5opNCR_-5">
          <mxGeometry relative="1" as="geometry" />
        </mxCell>
        <mxCell id="JGXlJp5vlm7jk5opNCR_-9" value="Párquings" style="rounded=0;whiteSpace=wrap;html=1;" vertex="1" parent="1">
          <mxGeometry x="165" y="250" width="120" height="60" as="geometry" />
        </mxCell>
      </root>
    </mxGraphModel>
  </diagram>
</mxfile>
